<!-- Generator: Adobe Illustrator 24.0.1, SVG Export Plug-In  -->
<svg version="1.1" xmlns="http://www.w3.org/2000/svg" xmlns:xlink="http://www.w3.org/1999/xlink" x="0px" y="0px"
	 width="476.026459px" height="512.524048px" viewBox="0 0 476.026459 512.524048"
	 style="enable-background:new 0 0 476.026459 512.524048;" xml:space="preserve">
<style type="text/css">
	.st0{fill-rule:evenodd;clip-rule:evenodd;fill:none;stroke:#000000;}
	.st1{fill-rule:evenodd;clip-rule:evenodd;fill:none;stroke:#A1B3D4;stroke-miterlimit:10;}
	.st2{fill-rule:evenodd;clip-rule:evenodd;fill:none;stroke:#00BFFF;stroke-miterlimit:10;}
	.st3{fill-rule:evenodd;clip-rule:evenodd;fill:none;stroke:#800080;stroke-miterlimit:10;}
	.st4{fill-rule:evenodd;clip-rule:evenodd;fill:none;stroke:#8D5B2D;stroke-miterlimit:10;}
	.st5{fill-rule:evenodd;clip-rule:evenodd;fill:none;stroke:#B4D445;stroke-miterlimit:10;}
	.st6{fill-rule:evenodd;clip-rule:evenodd;fill:none;stroke:#FFD702;stroke-miterlimit:10;}
	.st7{fill-rule:evenodd;clip-rule:evenodd;fill:none;stroke:#2DBE2C;stroke-miterlimit:10;}
	.st8{fill-rule:evenodd;clip-rule:evenodd;fill:none;stroke:#A0A2A3;stroke-miterlimit:10;}
	.st9{fill-rule:evenodd;clip-rule:evenodd;fill:none;stroke:#EF161E;stroke-miterlimit:10;}
	.st10{fill-rule:evenodd;clip-rule:evenodd;fill:none;stroke:#0078BE;stroke-miterlimit:10;}
	.st11{fill-rule:evenodd;clip-rule:evenodd;fill:none;stroke:#FFCBDB;stroke-miterlimit:10;}
	.st12{fill-rule:evenodd;clip-rule:evenodd;fill:none;stroke:#82C0C0;stroke-miterlimit:10;}
	.st13{fill-rule:evenodd;clip-rule:evenodd;fill:none;stroke:#FFA500;stroke-miterlimit:10;}
	.st14{fill-rule:evenodd;clip-rule:evenodd;fill:#FFFFFF;stroke:#A1B3D4;stroke-miterlimit:10;}
	.st15{fill-rule:evenodd;clip-rule:evenodd;fill:#FFFFFF;stroke:#00BFFF;stroke-miterlimit:10;}
	.st16{fill-rule:evenodd;clip-rule:evenodd;fill:#FFFFFF;stroke:#800080;stroke-miterlimit:10;}
	.st17{fill-rule:evenodd;clip-rule:evenodd;fill:#8D5B2D;}
	.st18{fill-rule:evenodd;clip-rule:evenodd;fill:#FFFFFF;stroke:#FFA500;stroke-miterlimit:10;}
	.st19{fill-rule:evenodd;clip-rule:evenodd;fill:#FFFFFF;stroke:#B4D445;stroke-miterlimit:10;}
	.st20{fill-rule:evenodd;clip-rule:evenodd;fill:#FFFFFF;stroke:#FFD702;stroke-miterlimit:10;}
	.st21{fill-rule:evenodd;clip-rule:evenodd;fill:#FFFFFF;stroke:#2DBE2C;stroke-miterlimit:10;}
	.st22{fill-rule:evenodd;clip-rule:evenodd;fill:#FFFFFF;stroke:#A0A2A3;stroke-miterlimit:10;}
	.st23{fill-rule:evenodd;clip-rule:evenodd;fill:#FFFFFF;stroke:#EF161E;stroke-miterlimit:10;}
	.st24{fill-rule:evenodd;clip-rule:evenodd;fill:#FFFFFF;stroke:#0078BE;stroke-miterlimit:10;}
	.st25{fill-rule:evenodd;clip-rule:evenodd;fill:#FFFFFF;stroke:#FFCBDB;stroke-miterlimit:10;}
	.st26{fill-rule:evenodd;clip-rule:evenodd;fill:#FFFFFF;stroke:#82C0C0;stroke-miterlimit:10;}
</style>
<defs>
</defs>
<rect id="bbox" x="230.96843" y="166.946762" class="st0" width="39.897919" height="46.768219"/>
<path id="line-12" class="st1" d="M178.373993,423.133301c2.700363,4.23941,13.533615,18.112762,16.202179,25.436462
	s2.763321,10.531036-0.190811,18.505707c-2.954132,7.97464-13.097305,23.824677-17.533951,29.342285
	c-4.436646,5.517578-5.91243,2.260101-9.085892,3.763214c-3.173462,1.503082-6.417191,3.546722-9.954849,5.255432
	c-3.537659,1.708679-9.392578,4.163879-11.271088,4.996674"/>
<path id="line-4" class="st2" d="M219.882584,208.199188c-1.052185,0.126709-2.868698-0.087097-6.313095,0.760284
	s-9.695663,2.395401-14.353317,4.32399s-9.034927,4.897202-13.592636,7.247543s-9.605988,5.993301-13.753601,6.854492
	s-6.690247,0.024689-11.132095-1.687347s-10.657074-7.712357-15.518967-8.584885s-9.477875,1.783844-13.652405,3.349701
	s-7.342766,4.207047-11.394806,6.04541s-7.94516,2.931015-12.917435,4.984756
	c-4.972275,2.053757-14.09684,6.114777-16.916214,7.337738"/>
<path id="line-4" class="st2" d="M185.623535,220.531006c-3.221085-1.509491-15.158737-7.96756-19.326538-9.056961
	s-4.733536,2.100464-5.680237,2.520554"/>
<path id="line-7" class="st3" d="M418.351257,318.294983c-0.246307-2.552429-0.677582-8.92807-1.477844-15.314484
	c-0.800293-6.386444,1.747711-15.868866-3.323761-23.00415c-5.071503-7.135284-19.338898-16.157318-27.105133-19.807495
	c-7.766266-3.650177-12.575012-4.458542-19.49231-2.093628c-6.917328,2.364929-13.795532,14.333099-22.011536,16.283173
	c-8.216003,1.950043-16.808105,0.047699-27.284485-4.582733c-10.47641-4.630463-26.866669-17.777512-35.573914-23.199936
	c-8.707275-5.422409-12.036804-5.75235-16.669708-9.334579s-6.843536-6.580643-11.127808-12.158829
	s-11.166443-16.523453-14.577805-21.310257s-2.419479-5.076462-5.890396-7.410583s-8.80867-6.538437-14.935089-6.594162
	s-15.732574,6.086136-21.823425,6.259842c-6.090836,0.173706-10.26828-2.259415-14.721634-5.217606
	s-6.396194-9.508667-11.998505-12.531509s-14.632782-0.930222-21.615387-5.60553s-12.99794-15.100952-20.280228-22.446289
	c-7.28228-7.345337-15.710464-15.738571-23.413452-21.625748c-7.70298-5.887169-19.165649-9.485466-22.804459-13.697281
	c-3.638802-4.211807,0.438034-3.97216,0.971619-11.573593c0.533592-7.601433,2.293381-25.938789,2.229919-34.035004
	c-0.063454-8.096207-2.175545-12.118542-2.610657-14.542248"/>
<path id="line-5" class="st4" d="M194.856216,196.362473c-2.460358,7.400665-11.20491,16.813492-9.343491,22.69339
	c1.861435,5.879898,14.673904,9.053665,20.512054,12.586014s10.213333,7.01416,14.51683,8.608063
	c4.303513,1.593903,7.523544,1.548538,11.304199,0.955338s7.712357-1.536575,11.379761-4.514511
	c3.667419-2.977936,7.792694-7.464417,10.62471-13.353119c2.832001-5.888702,5.942017-14.226395,6.367371-21.979095
	s-0.146576-19.258835-3.815216-24.537109c-3.668655-5.278275-11.434082-5.883652-18.196655-7.132523
	s-16.057007-1.187836-22.37883-0.360672c-6.321808,0.827164-12.056946,0.817947-15.552063,5.323654
	S197.316574,188.961807,194.856216,196.362473"/>
<path id="line-10" class="st5" d="M328.536499,406.002655c-0.186401-2.075226-0.906189-7.521729-1.118408-12.451202
	s-0.093048-10.334412-0.154907-17.125702c-0.06189-6.791321-1.157227-17.403748-0.21637-23.622131
	c0.940826-6.218384,3.391022-7.67041,5.861359-13.688141c2.470306-6.017731,8.611725-15.099609,8.960602-22.418243
	c0.348846-7.318634-2.227448-17.288544-6.867432-21.493622c-4.640015-4.205109-11.880585,0.165924-20.972504-3.737
	c-9.091949-3.902924-26.762115-13.624023-33.579071-19.680573c-6.816986-6.056549-5.049957-10.573181-7.322784-16.658722
	s-7.332275-13.443802-6.314117-19.854553s13.871155-13.046082,12.423035-18.609955
	c-1.448151-5.563873-15.387695-9.934433-21.111877-14.773315c-5.724228-4.838882-8.30394-11.369019-13.233398-14.259949
	c-4.929443-2.89093-13.014893,0.290482-16.343323-3.085663c-3.32843-3.376129-3.194977-10.944305-3.627274-17.171158
	s2.689514-12.609573,1.033478-20.189941s-7.16983-18.828354-10.969711-25.292267
	c-3.799881-6.463905-8.154083-8.457024-11.82959-13.491196c-3.675507-5.034164-8.387543-11.249786-10.223434-16.713806
	s0.996506-11.007172-0.791946-16.070312s-6.403137-9.441765-9.938797-14.308529s-9.395935-12.410038-11.275131-14.892044"/>
<path id="line-8A" class="st6" d="M164.75882,213.190109c-2.901215,2.929504-11.75679,11.901093-17.407288,17.576981
	s-16.319153,9.575836-16.495682,16.478348c-0.176514,6.902527,15.211273,18.524673,15.436554,24.936783
	c0.225281,6.412079-9.652115,9.34491-14.0849,13.535828c-4.432777,4.190887-5.903046,5.242432-12.51178,11.609558
	c-6.608727,6.367096-18.448845,19.592804-27.14061,26.59317S75.1754,334.434631,67.545166,339.329803
	c-7.630226,4.895203-14.561459,11.183655-20.77142,13.962097s-11.704182,0.351044-16.488359,2.708618
	c-4.784176,2.357544-7.517632,8.20636-12.216698,11.436829c-4.699066,3.230438-13.314749,6.621521-15.977699,7.945831"/>
<path id="line-8" class="st6" d="M235.094101,223.959839c3.414505-0.015839,13.115387,1.303162,20.486984-0.095032
	c7.371582-1.398193,14.915253-5.651993,23.742584-8.294098s20.473022-5.111877,29.221405-7.558533
	c8.748352-2.446655,14.456818-7.436752,23.268799-7.121414c8.811951,0.315338,20.653656,7.647888,29.602966,9.013412
	c8.94928,1.365524,13.841034-2.260147,24.092834-0.820236c10.25177,1.439911,31.181488,7.883072,37.417816,9.459686"/>
<path id="line-2" class="st7" d="M345.161316,377.188934c-2.862244,4.462067-10.884277,21.629028-17.17334,26.7724
	c-6.289093,5.143341-13.936676,4.002258-20.561188,4.087769c-6.624542,0.08551-12.63092-1.078735-19.185974-3.574738
	s-15.100708-6.151764-20.144287-11.401245c-5.043579-5.249451-7.392273-12.207245-10.117218-20.095551
	c-2.72496-7.888306-7.208359-17.181641-6.232468-27.234253c0.975891-10.052643,10.001694-24.004272,12.087814-33.081573
	s1.241943-14.588043,0.428925-21.382233c-0.813049-6.79422-1.778717-10.698761-5.307068-19.382965
	c-3.528366-8.684235-12.070343-24.695786-15.863083-32.722427s-4.419128-9.071503-6.893402-15.437424
	c-2.474258-6.365921-4.918259-17.222946-7.952194-22.758102s-7.053528-7.466522-10.25145-10.452866
	s-5.919403-4.680435-8.936096-7.465164c-3.016693-2.784714-4.271225-4.626602-9.164062-9.243164
	s-13.503784-12.8638-20.192932-18.456238c-6.689148-5.592422-14.225449-11.438065-19.94194-15.098343
	s-9.695145-2.46019-14.356995-6.863342s-9.842957-11.329521-13.614136-19.555542
	c-3.771164-8.226013-6.119957-21.304344-9.012894-29.800568c-2.892929-8.496216-6.769051-15.283096-8.344711-21.176754
	c-1.575653-5.893658-1.712265-8.718773-1.109222-14.185181c0.60305-5.466412,3.939583-15.51107,4.727493-18.613283"/>
<path id="line-9" class="st8" d="M202.918518,2.09099c2.15004,3.3001,10.607788,11.601329,12.900238,19.800598
	s2.659592,20.717718,0.854462,29.395021s-7.674591,16.007053-11.685257,22.668789
	c-4.010651,6.661736-10.565979,10.229134-12.378693,17.30162c-1.812714,7.072495,0.509186,18.419441,1.502426,25.133316
	c0.993256,6.713875,2.797653,9.303322,4.457062,15.149933c1.659409,5.846619,2.939331,13.904785,5.499374,19.929749
	c2.560059,6.024963,6.000946,11.120361,9.860931,16.220062s12.251587,10.552902,13.298981,14.378174
	s-5.574738,3.881012-7.014648,8.573486c-1.439896,4.692474-2.699615,13.299911-1.624771,19.58139
	s5.730148,12.730759,8.073837,18.107468s5.233368,7.218552,5.988312,14.152756
	c0.754944,6.934219-1.162857,16.788101-1.458664,27.45253c-0.295807,10.664398,1.356857,27.91568-0.316162,36.533997
	c-1.673019,8.618286-7.483704,10.419739-9.721939,15.175751s-2.13591,8.721924-3.707443,13.360291
	s-5.863373,9.250763-5.721725,14.469971s5.140869,9.76059,6.57164,16.845245
	c1.430771,7.084625,2.302704,19.063019,2.013016,25.662689c-0.289688,6.59964-2.586395,7.553223-3.751144,13.935242
	c-1.164734,6.381989-2.179199,17.35022-3.237305,24.356812s0.015778,11.617432-3.111359,17.682678
	c-3.127121,6.065216-13.042847,15.590607-15.651413,18.70874"/>
<path id="line-1" class="st9" d="M244.042542,189.243195c-2.808533,2.167267-5.937347,6.548767-8.927185,8.443359
	s-6.670532,0.896194-9.011871,2.92421s-3.352509,6.335556-5.036163,9.243896s-2.955719,4.497223-5.065796,8.206146
	c-2.110062,3.708923-4.245911,9.682205-7.59462,14.047379c-3.348709,4.365189-8.510406,9.289825-12.497604,12.143707
	s-8.871277,1.073944-11.425613,4.979614s0.206284,11.216309-3.900391,18.454407
	c-4.106674,7.238129-13.678024,17.17688-20.739655,24.974274s-14.99115,14.986633-21.630157,21.810028
	s-13.763481,11.767151-18.203888,19.130371s-2.955925,17.838593-8.438553,25.049042
	c-5.482628,7.210419-18.031738,12.579346-24.457214,18.213531s-9.556694,8.169586-14.095642,15.591522
	c-4.53894,7.421906-14.421272,20.554718-13.138027,28.940033c1.283241,8.385284,13.995083,13.706543,20.83749,21.371826
	s15.68383,18.59671,20.216949,24.619873c4.533119,6.023132,5.818138,9.599152,6.981766,11.518982"/>
<path id="line-3" class="st10" d="M371.094482,127.604782c0.100311,3.449234,2.862335,15.595779,0.601959,20.695404
	s-7.74353,8.440872-14.164215,9.902359c-6.420715,1.461487-16.367676-2.177689-24.359955-1.133469
	s-17.332153,5.787842-23.593719,7.398758c-6.261597,1.610916-8.565613-0.147415-13.975769,2.266754
	c-5.410187,2.414169-12.418793,6.626495-18.485229,12.218246s-10.122925,17.461533-17.91333,21.332291
	s-22.044373,0.502716-28.829147,1.892258s-6.640198,4.28273-11.879501,6.445007
	c-5.239288,2.162292-14.041763,4.689453-19.556274,6.528702s-4.932816,1.904144-13.530777,4.506805
	s-25.507904,7.643982-38.056992,11.109192c-12.549072,3.46521-27.744492,8.303558-37.237488,9.682037
	s-12.558411,1.223587-19.72049-1.411148s-18.227036-8.269119-23.251984-14.397278s-5.084873-7.532135-6.897701-22.371643
	c-1.812832-14.839508-0.543488-48.039688-3.979279-66.665421c-3.435795-18.625725-11.207272-35.154381-16.635475-45.088959
	s-12.213638-9.64341-15.933756-14.518478c-3.720118-4.875061-5.322462-12.276596-6.386955-14.731915"/>
<path id="line-15" class="st11" d="M473.935486,277.923309c-3.622833-1.272247-15.290588-5.929352-21.736847-7.633484
	c-6.446289-1.704163-10.389984-3.782501-16.940735-2.591461c-6.550781,1.19104-14.371185,8.491852-22.3638,9.737701
	c-7.992645,1.245819-16.477081,1.159637-25.591919-2.262665c-9.114868-3.422302-20.375824-13.089783-29.097198-18.271149
	c-8.721405-5.181366-16.25882-9.549728-23.231171-12.817032c-6.972382-3.267303-14.084137-0.513504-18.603088-6.786819
	c-4.518982-6.273315-5.43576-23.07222-8.510681-30.853073c-3.074951-7.780853-7.768311-9.48465-9.938995-15.832016
	c-2.170715-6.347351-2.571014-18.543442-3.085205-22.252136"/>
<path id="line-11" class="st12" d="M202.162994,151.649414c-3.891281,0.10199-16.286636-0.756729-23.347687,0.611954
	s-13.982956,4.005737-19.018631,7.600159s-9.976562,7.024429-11.195389,13.96637s1.189499,21.124939,3.882416,27.685303
	s10.229263,9.730759,12.275116,11.67691"/>
<path id="line-11" class="st12" d="M148.601288,173.827896c-4.431976,0.226334-20.246292-2.34877-26.591888,1.358017
	c-6.345589,3.706787-9.568047,17.402252-11.481659,20.882706"/>
<path id="line-6" class="st13" d="M239.408035,203.851151c-1.367172,6.002014-1.918442,14.625946-4.829117,20.508301
	s-10.086212,9.82869-12.634933,14.785843s0.667435,9.562637-2.657394,14.957108
	c-3.324829,5.394455-12.696808,9.812668-17.291565,17.409683s-7.166107,21.156372-10.276993,28.172424
	c-3.11087,7.016052-5.899689,9.795868-8.388275,13.923981c-2.488571,4.128113-3.610504,6.002686-6.543198,10.844696
	s-7.215195,11.750824-11.052979,18.207336s-9.088455,14.863892-11.973755,20.531738
	c-2.8853,5.667816-3.035843,7.868225-5.338043,13.475311c-2.302185,5.607086-10.443481,13.8573-8.475113,20.167236
	s14.200455,13.503662,20.285355,17.692383c6.084915,4.188721,13.520081,6.200012,16.224091,7.440002"/>
<path id="line-6" class="st13" d="M242.781937,188.347382c0.258606,4.190598-2.006729,9.501755-3.373901,15.503769"/>
<path id="line-6" class="st13" d="M261.966797,17.232775c0.349457,4.1511,3.266266,17.326067,2.096893,24.906603
	c-1.169403,7.580532-5.698364,14.78553-9.11322,20.576599s-9.875397,6.135311-11.375916,14.169796
	s2.30748,25.445503,2.372803,34.037109s-1.32608,11.03759-1.980835,17.512558
	c-0.654755,6.474976-1.029495,14.765289-1.947662,21.33725c-0.918152,6.57196-2.867554,13.272003-3.561295,18.094482
	s-1.321884,7.427048-0.601151,10.840408c0.720734,3.413376,4.666916,5.449203,4.925522,9.639801"/>
<path id="line-1" class="st9" d="M257.664246,175.958969c-2.36438,2.545929-3.427414,6.509979-5.697693,8.724014
	s-5.115479,2.392944-7.924011,4.560211"/>
<path id="line-1" class="st9" d="M320.035828,120.086624c1.399963,2.544701,10.940765,10.953751,8.399902,15.268173
	c-2.540894,4.314423-15.050903,7.064896-23.645142,10.618393c-8.594269,3.553497-21.480713,6.796875-27.920349,10.702576
	c-6.439667,3.905701-7.516541,9.517746-10.717529,12.731613s-6.124115,4.005661-8.488464,6.55159"/>
<circle class="st14" cx="176.85141" cy="496.417755" r="1.59099"/>
<circle class="st14" cx="167.765518" cy="500.180969" r="1.59099"/>
<circle class="st14" cx="157.810669" cy="505.436401" r="1.59099"/>
<circle class="st14" cx="146.539581" cy="510.433075" r="1.59099"/>
<circle class="st14" cx="194.385361" cy="467.07547" r="1.59099"/>
<circle class="st14" cx="194.576172" cy="448.569763" r="1.59099"/>
<circle class="st14" cx="178.373993" cy="423.133301" r="1.59099"/>
<circle class="st15" cx="120.171661" cy="226.508377" r="1.59099"/>
<circle class="st15" cx="131.566467" cy="220.462967" r="1.59099"/>
<circle class="st15" cx="145.218872" cy="217.113266" r="1.59099"/>
<circle class="st15" cx="160.737839" cy="225.698151" r="1.59099"/>
<circle class="st15" cx="171.869934" cy="227.385498" r="1.59099"/>
<circle class="st15" cx="107.254227" cy="231.493134" r="1.59099"/>
<circle class="st15" cx="213.569489" cy="208.959473" r="1.59099"/>
<circle class="st15" cx="166.296997" cy="211.474045" r="1.59099"/>
<circle class="st15" cx="219.882584" cy="208.199188" r="1.59099"/>
<circle class="st15" cx="185.623535" cy="220.531006" r="1.59099"/>
<circle class="st15" cx="160.61676" cy="213.994598" r="1.59099"/>
<circle class="st15" cx="199.216171" cy="213.283463" r="1.59099"/>
<circle class="st15" cx="90.338013" cy="238.830872" r="1.59099"/>
<circle class="st16" cx="233.816559" cy="196.361481" r="1.59099"/>
<circle class="st16" cx="254.28476" cy="225.082321" r="1.59099"/>
<circle class="st16" cx="265.412567" cy="237.24115" r="1.59099"/>
<circle class="st16" cx="282.082275" cy="246.575729" r="1.59099"/>
<circle class="st16" cx="317.656189" cy="269.775665" r="1.59099"/>
<circle class="st16" cx="344.940674" cy="274.358398" r="1.59099"/>
<circle class="st16" cx="386.444519" cy="260.168854" r="1.59099"/>
<circle class="st16" cx="366.952209" cy="258.075226" r="1.59099"/>
<circle class="st16" cx="82.815262" cy="54.752354" r="1.59099"/>
<circle class="st16" cx="83.195999" cy="103.329605" r="1.59099"/>
<circle class="st16" cx="105.028839" cy="128.600479" r="1.59099"/>
<circle class="st16" cx="148.722519" cy="172.672516" r="1.59099"/>
<circle class="st16" cx="170.337906" cy="178.278046" r="1.59099"/>
<circle class="st16" cx="182.336411" cy="190.809555" r="1.59099"/>
<circle class="st16" cx="197.058044" cy="196.027161" r="1.59099"/>
<circle class="st16" cx="128.442291" cy="150.226227" r="1.59099"/>
<circle class="st16" cx="85.425919" cy="69.294601" r="1.59099"/>
<circle class="st16" cx="218.88147" cy="189.767319" r="1.59099"/>
<circle class="st16" cx="416.873413" cy="302.980499" r="1.59099"/>
<circle class="st16" cx="413.549652" cy="279.976349" r="1.59099"/>
<circle class="st16" cx="418.351257" cy="318.294983" r="1.59099"/>
<circle class="st16" cx="239.706955" cy="203.772064" r="1.59099"/>
<circle class="st16" cx="82.22438" cy="114.903198" r="1.59099"/>
<circle class="st17" cx="206.02478" cy="231.641876" r="1.59099"/>
<circle class="st17" cx="220.541611" cy="240.249939" r="1.59099"/>
<circle class="st17" cx="243.225571" cy="236.690765" r="1.59099"/>
<circle class="st17" cx="238.20578" cy="169.688919" r="1.59099"/>
<circle class="st17" cx="231.84581" cy="241.205276" r="1.59099"/>
<circle class="st17" cx="253.850281" cy="223.337646" r="1.59099"/>
<circle class="st17" cx="256.402435" cy="176.821442" r="1.59099"/>
<circle class="st17" cx="215.82695" cy="169.328247" r="1.59099"/>
<circle class="st17" cx="194.856216" cy="196.362473" r="1.59099"/>
<circle class="st17" cx="185.512726" cy="219.055862" r="1.59099"/>
<circle class="st17" cx="200.274887" cy="174.651901" r="1.59099"/>
<circle class="st17" cx="260.217651" cy="201.358551" r="1.59099"/>
<circle class="st18" cx="261.966797" cy="17.232775" r="1.59099"/>
<circle class="st18" cx="264.06369" cy="42.139378" r="1.59099"/>
<circle class="st18" cx="139.946671" cy="396.834808" r="1.59099"/>
<circle class="st18" cx="165.733582" cy="342.660522" r="1.59099"/>
<circle class="st18" cx="176.78656" cy="324.453186" r="1.59099"/>
<circle class="st18" cx="160.232025" cy="414.527191" r="1.59099"/>
<circle class="st18" cx="254.95047" cy="62.715977" r="1.59099"/>
<circle class="st18" cx="243.574554" cy="76.885773" r="1.59099"/>
<circle class="st18" cx="242.01886" cy="149.77269" r="1.59099"/>
<circle class="st18" cx="238.457565" cy="167.867172" r="1.59099"/>
<circle class="st18" cx="237.856415" cy="178.707581" r="1.59099"/>
<circle class="st18" cx="242.781937" cy="188.347382" r="1.59099"/>
<circle class="st18" cx="234.578918" cy="224.359451" r="1.59099"/>
<circle class="st18" cx="221.943985" cy="239.145294" r="1.59099"/>
<circle class="st18" cx="219.286591" cy="254.102402" r="1.59099"/>
<circle class="st18" cx="201.995026" cy="271.512085" r="1.59099"/>
<circle class="st18" cx="191.718033" cy="299.684509" r="1.59099"/>
<circle class="st18" cx="183.329758" cy="313.60849" r="1.59099"/>
<circle class="st18" cx="153.759827" cy="363.192261" r="1.59099"/>
<circle class="st18" cx="176.456116" cy="421.967194" r="1.59099"/>
<circle class="st18" cx="148.421783" cy="376.667572" r="1.59099"/>
<circle class="st18" cx="239.408035" cy="203.851151" r="1.59099"/>
<circle class="st18" cx="243.966522" cy="128.43544" r="1.59099"/>
<circle class="st18" cx="245.947357" cy="110.922882" r="1.59099"/>
<circle class="st19" cx="228.547302" cy="184.543884" r="1.59099"/>
<circle class="st19" cx="279.235901" cy="216.662811" r="1.59099"/>
<circle class="st19" cx="273.126984" cy="255.127319" r="1.59099"/>
<circle class="st19" cx="280.449768" cy="271.786041" r="1.59099"/>
<circle class="st19" cx="314.028839" cy="291.466614" r="1.59099"/>
<circle class="st19" cx="335.001343" cy="295.203613" r="1.59099"/>
<circle class="st19" cx="341.868774" cy="316.697235" r="1.59099"/>
<circle class="st19" cx="327.046814" cy="352.803619" r="1.59099"/>
<circle class="st19" cx="332.908173" cy="339.115479" r="1.59099"/>
<circle class="st19" cx="244.890625" cy="187.629547" r="1.59099"/>
<circle class="st19" cx="225.953506" cy="147.182785" r="1.59099"/>
<circle class="st19" cx="224.920029" cy="167.372726" r="1.59099"/>
<circle class="st19" cx="327.263184" cy="376.425751" r="1.59099"/>
<circle class="st19" cx="328.536499" cy="406.002655" r="1.59099"/>
<circle class="st19" cx="327.418091" cy="393.551453" r="1.59099"/>
<circle class="st19" cx="203.154205" cy="108.399323" r="1.59099"/>
<circle class="st19" cx="214.983795" cy="121.890518" r="1.59099"/>
<circle class="st19" cx="192.930771" cy="91.685516" r="1.59099"/>
<circle class="st19" cx="258.124023" cy="201.889496" r="1.59099"/>
<circle class="st19" cx="170.924896" cy="46.414631" r="1.59099"/>
<circle class="st19" cx="182.200027" cy="61.306675" r="1.59099"/>
<circle class="st19" cx="192.138824" cy="75.615204" r="1.59099"/>
<circle class="st19" cx="266.812866" cy="235.272766" r="1.59099"/>
<circle class="st20" cx="385.509674" cy="209.083939" r="1.59099"/>
<circle class="st20" cx="361.41684" cy="209.904175" r="1.59099"/>
<circle class="st20" cx="331.813873" cy="200.890762" r="1.59099"/>
<circle class="st20" cx="308.545074" cy="208.012177" r="1.59099"/>
<circle class="st20" cx="279.323669" cy="215.570709" r="1.59099"/>
<circle class="st20" cx="255.581085" cy="223.864807" r="1.59099"/>
<circle class="st20" cx="235.094101" cy="223.959839" r="1.59099"/>
<circle class="st20" cx="422.92749" cy="218.543625" r="1.59099"/>
<circle class="st20" cx="147.351532" cy="230.76709" r="1.59099"/>
<circle class="st20" cx="130.85585" cy="247.245438" r="1.59099"/>
<circle class="st20" cx="146.292404" cy="272.18222" r="1.59099"/>
<circle class="st20" cx="132.207504" cy="285.718048" r="1.59099"/>
<circle class="st20" cx="164.75882" cy="213.190109" r="1.59099"/>
<circle class="st20" cx="119.695724" cy="297.327606" r="1.59099"/>
<circle class="st20" cx="92.555115" cy="323.920776" r="1.59099"/>
<circle class="st20" cx="18.068689" cy="367.437347" r="1.59099"/>
<circle class="st20" cx="2.09099" cy="375.383179" r="1.59099"/>
<circle class="st20" cx="30.285387" cy="356.000519" r="1.59099"/>
<circle class="st20" cx="46.773746" cy="353.291901" r="1.59099"/>
<circle class="st20" cx="67.545166" cy="339.329803" r="1.59099"/>
<circle class="st21" cx="114.432617" cy="62.866611" r="1.59099"/>
<circle class="st21" cx="122.777328" cy="84.043365" r="1.59099"/>
<circle class="st21" cx="131.790222" cy="113.843933" r="1.59099"/>
<circle class="st21" cx="159.761353" cy="140.262817" r="1.59099"/>
<circle class="st21" cx="179.703293" cy="155.36116" r="1.59099"/>
<circle class="st21" cx="209.060287" cy="183.060562" r="1.59099"/>
<circle class="st21" cx="243.09343" cy="239.174118" r="1.59099"/>
<circle class="st21" cx="228.247833" cy="200.978592" r="1.59099"/>
<circle class="st21" cx="236.200027" cy="223.736694" r="1.59099"/>
<circle class="st21" cx="217.996384" cy="190.525726" r="1.59099"/>
<circle class="st21" cx="258.956512" cy="271.896545" r="1.59099"/>
<circle class="st21" cx="263.834656" cy="312.661743" r="1.59099"/>
<circle class="st21" cx="264.26358" cy="291.27951" r="1.59099"/>
<circle class="st21" cx="327.987976" cy="403.961334" r="1.59099"/>
<circle class="st21" cx="307.426788" cy="408.049103" r="1.59099"/>
<circle class="st21" cx="288.240814" cy="404.474365" r="1.59099"/>
<circle class="st21" cx="268.096527" cy="393.07312" r="1.59099"/>
<circle class="st21" cx="257.979309" cy="372.97757" r="1.59099"/>
<circle class="st21" cx="199.896225" cy="173.817398" r="1.59099"/>
<circle class="st21" cx="345.161316" cy="377.188934" r="1.59099"/>
<circle class="st21" cx="251.746841" cy="345.743317" r="1.59099"/>
<circle class="st21" cx="145.404358" cy="133.399475" r="1.59099"/>
<circle class="st21" cx="118.050888" cy="30.068148" r="1.59099"/>
<circle class="st21" cx="113.323395" cy="48.681431" r="1.59099"/>
<circle class="st22" cx="227.228043" cy="182.068253" r="1.59099"/>
<circle class="st22" cx="220.213394" cy="190.641739" r="1.59099"/>
<circle class="st22" cx="218.588623" cy="210.223129" r="1.59099"/>
<circle class="st22" cx="232.650772" cy="242.483353" r="1.59099"/>
<circle class="st22" cx="231.192108" cy="269.935883" r="1.59099"/>
<circle class="st22" cx="230.875946" cy="306.469879" r="1.59099"/>
<circle class="st22" cx="221.154007" cy="321.64563" r="1.59099"/>
<circle class="st22" cx="217.446564" cy="335.00592" r="1.59099"/>
<circle class="st22" cx="211.724838" cy="349.475891" r="1.59099"/>
<circle class="st22" cx="218.296478" cy="366.321136" r="1.59099"/>
<circle class="st22" cx="220.309494" cy="391.983826" r="1.59099"/>
<circle class="st22" cx="216.55835" cy="405.919067" r="1.59099"/>
<circle class="st22" cx="213.321045" cy="430.275879" r="1.59099"/>
<circle class="st22" cx="210.209686" cy="447.958557" r="1.59099"/>
<circle class="st22" cx="194.111694" cy="116.390335" r="1.59099"/>
<circle class="st22" cx="198.568756" cy="131.540268" r="1.59099"/>
<circle class="st22" cx="204.06813" cy="151.470016" r="1.59099"/>
<circle class="st22" cx="213.929062" cy="167.690079" r="1.59099"/>
<circle class="st22" cx="202.918518" cy="2.09099" r="1.59099"/>
<circle class="st22" cx="215.818756" cy="21.891588" r="1.59099"/>
<circle class="st22" cx="216.673218" cy="51.28661" r="1.59099"/>
<circle class="st22" cx="204.987961" cy="73.955399" r="1.59099"/>
<circle class="st22" cx="194.558273" cy="466.667297" r="1.59099"/>
<circle class="st22" cx="226.66246" cy="228.330597" r="1.59099"/>
<circle class="st22" cx="192.609268" cy="91.257019" r="1.59099"/>
<circle class="st23" cx="320.035828" cy="120.086624" r="1.59099"/>
<circle class="st23" cx="328.43573" cy="135.354797" r="1.59099"/>
<circle class="st23" cx="304.790588" cy="145.97319" r="1.59099"/>
<circle class="st23" cx="276.870239" cy="156.675766" r="1.59099"/>
<circle class="st23" cx="257.664246" cy="175.958969" r="1.59099"/>
<circle class="st23" cx="266.15271" cy="169.407379" r="1.59099"/>
<circle class="st23" cx="226.103485" cy="200.610764" r="1.59099"/>
<circle class="st23" cx="235.115356" cy="197.686554" r="1.59099"/>
<circle class="st23" cx="244.042542" cy="189.243195" r="1.59099"/>
<circle class="st23" cx="216.001526" cy="218.060806" r="1.59099"/>
<circle class="st23" cx="221.067322" cy="209.85466" r="1.59099"/>
<circle class="st23" cx="184.483688" cy="249.231506" r="1.59099"/>
<circle class="st23" cx="195.909302" cy="244.251892" r="1.59099"/>
<circle class="st23" cx="180.583298" cy="267.685913" r="1.59099"/>
<circle class="st23" cx="120.009598" cy="333.600586" r="1.59099"/>
<circle class="st23" cx="159.843643" cy="292.660187" r="1.59099"/>
<circle class="st23" cx="138.213486" cy="314.470215" r="1.59099"/>
<circle class="st23" cx="111.571045" cy="358.649628" r="1.59099"/>
<circle class="st23" cx="87.113831" cy="376.863159" r="1.59099"/>
<circle class="st23" cx="73.018188" cy="392.454681" r="1.59099"/>
<circle class="st23" cx="208.406906" cy="232.108185" r="1.59099"/>
<circle class="st23" cx="107.916367" cy="478.905396" r="1.59099"/>
<circle class="st23" cx="100.934601" cy="467.386414" r="1.59099"/>
<circle class="st23" cx="80.717651" cy="442.766541" r="1.59099"/>
<circle class="st23" cx="59.880161" cy="421.394714" r="1.59099"/>
<circle class="st23" cx="251.966553" cy="184.682983" r="1.59099"/>
<circle class="st24" cx="333.172272" cy="157.069077" r="1.59099"/>
<circle class="st24" cx="309.578552" cy="164.467834" r="1.59099"/>
<circle class="st24" cx="295.602783" cy="166.734589" r="1.59099"/>
<circle class="st24" cx="277.117554" cy="178.952835" r="1.59099"/>
<circle class="st24" cx="230.375076" cy="202.177383" r="1.59099"/>
<circle class="st24" cx="218.495575" cy="208.622391" r="1.59099"/>
<circle class="st24" cx="67.141571" cy="224.640701" r="1.59099"/>
<circle class="st24" cx="198.939301" cy="215.151093" r="1.59099"/>
<circle class="st24" cx="110.114044" cy="240.449127" r="1.59099"/>
<circle class="st24" cx="23.69536" cy="75.996201" r="1.59099"/>
<circle class="st24" cx="17.308405" cy="61.264286" r="1.59099"/>
<circle class="st24" cx="357.532227" cy="158.202545" r="1.59099"/>
<circle class="st24" cx="371.696442" cy="148.300186" r="1.59099"/>
<circle class="st24" cx="371.094482" cy="127.604782" r="1.59099"/>
<circle class="st24" cx="185.408524" cy="219.657898" r="1.59099"/>
<circle class="st24" cx="90.393555" cy="239.037979" r="1.59099"/>
<circle class="st24" cx="56.264591" cy="135.603638" r="1.59099"/>
<circle class="st24" cx="39.629116" cy="90.514679" r="1.59099"/>
<circle class="st24" cx="259.204224" cy="200.285126" r="1.59099"/>
<circle class="st24" cx="60.24387" cy="202.269058" r="1.59099"/>
<circle class="st25" cx="412.894104" cy="277.436066" r="1.59099"/>
<circle class="st25" cx="435.257904" cy="267.698364" r="1.59099"/>
<circle class="st25" cx="452.198639" cy="270.289825" r="1.59099"/>
<circle class="st25" cx="473.935486" cy="277.923309" r="1.59099"/>
<circle class="st25" cx="358.204987" cy="256.902252" r="1.59099"/>
<circle class="st25" cx="334.973816" cy="244.08522" r="1.59099"/>
<circle class="st25" cx="387.302185" cy="275.173401" r="1.59099"/>
<circle class="st25" cx="297.921051" cy="190.613312" r="1.59099"/>
<circle class="st25" cx="307.860046" cy="206.445328" r="1.59099"/>
<circle class="st25" cx="316.370728" cy="237.298401" r="1.59099"/>
<circle class="st25" cx="294.835846" cy="168.361176" r="1.59099"/>
<circle class="st26" cx="148.601288" cy="173.827896" r="1.59099"/>
<circle class="st26" cx="178.815308" cy="152.261368" r="1.59099"/>
<circle class="st26" cx="159.796677" cy="159.861526" r="1.59099"/>
<circle class="st26" cx="152.483704" cy="201.513199" r="1.59099"/>
<circle class="st26" cx="122.009399" cy="175.185913" r="1.59099"/>
<circle class="st26" cx="110.52774" cy="196.068619" r="1.59099"/>
<circle class="st26" cx="202.162994" cy="151.649414" r="1.59099"/>
</svg>
